<svg xmlns="http://www.w3.org/2000/svg" width="143" height="28" viewBox="0 0 143 28">
  <g fill="none" transform="translate(0 1)">
    <path fill="#F00" d="M9.352,14.314 L9.352,23 L11.792,23 L11.792,0.334 L8.147,0.334 C4.565,0.334 1.553,2.712 1.553,7.467 C1.553,10.859 2.885,12.697 4.883,13.712 L0.632,23 L3.454,23 L7.322,14.314 L9.352,14.314 Z M9.352,12.284 L8.052,12.284 C5.928,12.284 4.184,11.112 4.184,7.467 C4.184,3.695 6.086,2.395 8.052,2.395 L9.352,2.395 L9.352,12.285 L9.352,12.284 Z"/>
    <path fill="#000" d="M36.265,20.97 L34.997,20.97 L34.997,7.024 L27.58,7.024 L27.58,8.387 C27.58,12.635 27.42,17.58 25.962,20.972 L24.98,20.972 L24.98,26.14 L27.2,26.14 L27.2,23 L34.046,23 L34.046,26.138 L36.266,26.138 L36.266,20.97 L36.265,20.97 Z M32.555,20.97 L28.31,20.97 C29.642,17.58 29.8,12.666 29.8,9.306 L29.8,9.02 L32.558,9.02 L32.558,20.97 L32.555,20.97 Z M47.01,21.922 L46.44,20.02 C45.807,20.464 44.697,21.098 43.302,21.098 C41.337,21.098 40.322,19.196 40.322,15.582 L46.979,15.582 L46.979,14.22 C46.979,8.798 45.235,6.8 42.572,6.8 C39.18,6.8 37.754,10.542 37.754,15.677 C37.754,20.591 39.784,23.222 43.079,23.222 C44.664,23.222 45.996,22.715 47.009,21.922 L47.01,21.922 Z M42.574,8.83 C44.001,8.83 44.444,10.827 44.444,13.553 L40.354,13.553 C40.514,10.7 41.054,8.83 42.574,8.83 L42.574,8.83 Z M21.112,7.023 L21.112,13.807 L17.435,13.807 L17.435,7.023 L14.962,7.023 L14.962,23 L17.435,23 L17.435,15.836 L21.112,15.836 L21.112,23 L23.552,23 L23.552,7.023 L21.112,7.023 Z M56.204,23 L58.9,23 L54.366,14.536 L58.328,7.023 L55.824,7.023 L51.988,14.409 L51.988,7.022 L49.515,7.022 L49.515,23 L51.988,23 L51.988,15.043 L56.204,23 Z M64.7,23.222 C66.158,23.222 67.172,22.746 68.028,22.017 L67.458,20.179 C66.888,20.685 65.968,21.159 64.763,21.159 C62.766,21.159 61.815,18.879 61.815,14.884 C61.815,10.858 63.083,8.861 64.858,8.861 C65.873,8.861 66.824,9.401 67.488,9.971 L67.838,7.624 C67.141,7.181 66.316,6.8 64.89,6.8 C61.15,6.8 59.216,10.003 59.216,15.012 C59.216,20.464 61.276,23.222 64.7,23.222 L64.7,23.222 Z"/>
    <path fill="#000" stroke="#231F20" stroke-width=".1" d="M141.9 20L141.9 11.3C141.9 8.1 140.4 6.7 137.8 6.7 136 6.7 134.7 7.5 134 8.3L134.4 9.7C135.2 8.6 136.4 8 137.8 8 139.5 8 140.5 9 140.5 11.5L140.5 13.5 138.8 13.5C135.3 13.5 133.5 15.3 133.5 18.7 133.5 21.6 135 23.3 137.1 23.3 138.7 23.3 139.8 22.3 140.6 20.8 140.7 21.9 140.9 22.5 141 23L142.4 23C142.1 22.4 141.9 21.2 141.9 20zM140.5 19C139.9 20.7 138.9 22.1 137.4 22.1 135.9 22.1 134.9 20.8 134.9 18.5 134.9 15.7 136.2 14.5 138.8 14.5L140.5 14.5 140.5 19zM129.8 21.8L129.8 7 122.9 7C122.9 7 122.8 12.1 122.4 16 122.1 19 121.5 21.2 120.5 21.7L119.8 21.7 119.8 26 121 26 121.2 22.9 129.9 22.9 130.1 26 131.3 26 131.3 21.7 129.8 21.7 129.8 21.8zM128.3 21.8L122.2 21.8C123 20.8 123.4 19.1 123.7 16.4 124.1 12.7 124.2 8.2 124.2 8.2L128.3 8.2 128.3 21.8zM113.4 6.7C110.6 6.7 108.5 9.8 108.5 15.1 108.5 20.6 110.6 23.3 113.4 23.3 116.2 23.3 118.3 20.2 118.3 14.9 118.3 9.4 116.2 6.7 113.4 6.7zM113.4 22.1C111.6 22.1 110 20 110 15 110 10.1 111.5 7.9 113.4 7.9 115.3 7.9 116.8 10 116.8 15 116.8 19.8 115.3 22.1 113.4 22.1z"/>
    <polygon fill="#000" stroke="#231F20" stroke-width=".1" points="107 8.2 107 7 100.2 7 100.2 23 101.7 23 101.7 8.2"/>
    <path fill="#000" stroke="#231F20" stroke-width=".1" d="M92.6,6.7 C89.8,6.7 87.7,9.8 87.7,15.1 C87.7,20.6 89.8,23.3 92.6,23.3 C95.4,23.3 97.5,20.2 97.5,14.9 C97.5,9.4 95.3,6.7 92.6,6.7 Z M92.6,22.1 C90.7,22.1 89.2,20 89.2,15 C89.2,10.1 90.7,7.9 92.6,7.9 C94.5,7.9 96,10 96,15 C96,19.8 94.5,22.1 92.6,22.1 Z"/>
    <polygon fill="#000" stroke="#231F20" stroke-width=".1" points="83.4 23 85 23 85 0 75 0 75 23 76.6 23 76.6 1.3 83.4 1.3"/>
  </g>
</svg>
